<?xml version="1.0" encoding="utf-8"?>
<!-- Generator: Adobe Illustrator 17.0.2, SVG Export Plug-In . SVG Version: 6.00 Build 0)  -->
<!DOCTYPE svg PUBLIC "-//W3C//DTD SVG 1.1//EN" "http://www.w3.org/Graphics/SVG/1.1/DTD/svg11.dtd">
<svg version="1.1" id="Lager_1" xmlns="http://www.w3.org/2000/svg" xmlns:xlink="http://www.w3.org/1999/xlink" x="0px" y="0px"
	 width="44px" height="44px" viewBox="0 0 44 44" enable-background="new 0 0 44 44" xml:space="preserve">
<polygon fill="#E2C01A" points="3.572,28.305 7.218,17.93 2.89,17.93 2.89,14.908 10.456,14.908 10.456,17.716 7.453,28.558 
	3.572,28.558 "/>
<polygon fill="#E2C01A" points="11.294,26.043 13.069,26.043 13.069,18.359 11.294,18.808 11.294,16.097 14.162,14.908 
	16.638,14.908 16.638,26.043 18.296,26.043 18.296,28.559 11.294,28.559 "/>
<polygon fill="#E2C01A" points="18.899,28.305 22.545,17.93 18.216,17.93 18.216,14.908 25.782,14.908 25.782,17.716 22.78,28.558 
	18.899,28.558 "/>
<polygon fill="#E2C01A" points="26.622,26.043 28.395,26.043 28.395,18.359 26.622,18.808 26.622,16.097 29.487,14.908 
	31.963,14.908 31.963,26.043 33.621,26.043 33.621,28.559 26.622,28.559 "/>
<polygon fill="#E2C01A" points="34.226,28.305 37.873,17.93 33.544,17.93 33.544,14.908 41.11,14.908 41.11,17.716 38.107,28.558 
	34.226,28.558 "/>
</svg>
