<?xml version="1.0" encoding="utf-8"?>
<!-- Generator: Adobe Illustrator 17.0.2, SVG Export Plug-In . SVG Version: 6.00 Build 0)  -->
<!DOCTYPE svg PUBLIC "-//W3C//DTD SVG 1.1//EN" "http://www.w3.org/Graphics/SVG/1.1/DTD/svg11.dtd">
<svg version="1.1" id="Lager_1" xmlns="http://www.w3.org/2000/svg" xmlns:xlink="http://www.w3.org/1999/xlink" x="0px" y="0px"
	 width="44px" height="44px" viewBox="0 0 44 44" enable-background="new 0 0 44 44" xml:space="preserve">
<g>
	<defs>
		<rect id="SVGID_1_" width="44" height="44"/>
	</defs>
	<clipPath id="SVGID_2_">
		<use xlink:href="#SVGID_1_"  overflow="visible"/>
	</clipPath>
	<path clip-path="url(#SVGID_2_)" fill="#BABABA" d="M33.427,19.238c0.012-0.178,0.027-0.356,0.027-0.538
		c0-4.427-3.589-8.016-8.017-8.016c-4.427,0-8.016,3.589-8.016,8.016c0,0.041,0.005,0.081,0.006,0.122
		c-0.437-0.074-0.884-0.122-1.342-0.122c-4.428,0-8.017,3.59-8.017,8.017c0,4.428,3.589,8.017,8.017,8.017h14.474
		c4.428,0,8.017-3.589,8.017-8.017C38.576,23.302,36.436,20.393,33.427,19.238"/>
	<path clip-path="url(#SVGID_2_)" fill="#F2D351" d="M10.768,11.165c0.165,0.009,0.333-0.023,0.487-0.101
		c0.468-0.242,0.656-0.815,0.414-1.287c-0.239-0.469-0.816-0.653-1.284-0.414c-0.469,0.242-0.657,0.815-0.414,1.284
		C10.132,10.962,10.441,11.147,10.768,11.165"/>
	<path clip-path="url(#SVGID_2_)" fill="#F2D351" d="M14.901,10.284c0.527,0.029,0.976-0.377,1.005-0.901
		c0.025-0.528-0.38-0.977-0.905-1.006c-0.527-0.025-0.976,0.381-1.002,0.905C13.971,9.81,14.374,10.255,14.901,10.284"/>
	<path clip-path="url(#SVGID_2_)" fill="#F2D351" d="M19.742,10.07c-0.067-0.092-0.149-0.176-0.25-0.242
		c-0.443-0.285-1.033-0.161-1.322,0.282c-0.233,0.363-0.189,0.821,0.077,1.135C18.704,10.806,19.203,10.41,19.742,10.07"/>
	<path clip-path="url(#SVGID_2_)" fill="#F2D351" d="M6.821,20.345c-0.469,0.239-0.656,0.815-0.417,1.284
		c0.107,0.209,0.283,0.354,0.483,0.438c0.268-0.573,0.591-1.113,0.963-1.616C7.566,20.224,7.165,20.169,6.821,20.345"/>
	<path clip-path="url(#SVGID_2_)" fill="#F2D351" d="M7.332,17.113c0.029-0.527-0.377-0.976-0.905-1.005
		c-0.524-0.025-0.973,0.377-1.002,0.905c-0.028,0.527,0.378,0.976,0.905,1.005C6.854,18.043,7.303,17.64,7.332,17.113"/>
	<path clip-path="url(#SVGID_2_)" fill="#F2D351" d="M7.162,13.844c0.145,0.094,0.304,0.144,0.467,0.153
		c0.33,0.018,0.66-0.136,0.852-0.432c0.288-0.443,0.164-1.033-0.279-1.322c-0.443-0.288-1.034-0.161-1.322,0.279
		C6.595,12.966,6.719,13.556,7.162,13.844"/>
	<path clip-path="url(#SVGID_2_)" fill="#F2D351" d="M15.379,16.706c0.026,0,0.052,0,0.078,0c0.257-1.77,1.017-3.377,2.121-4.683
		c-0.806-0.45-1.72-0.734-2.704-0.787c-3.453-0.188-6.404,2.46-6.592,5.912c-0.046,0.855,0.082,1.679,0.353,2.438
		C10.341,17.814,12.731,16.706,15.379,16.706"/>
</g>
</svg>
