<?xml version="1.0" encoding="utf-8"?>
<!-- Generator: Adobe Illustrator 17.0.2, SVG Export Plug-In . SVG Version: 6.00 Build 0)  -->
<!DOCTYPE svg PUBLIC "-//W3C//DTD SVG 1.1//EN" "http://www.w3.org/Graphics/SVG/1.1/DTD/svg11.dtd">
<svg version="1.1" id="Lager_1" xmlns="http://www.w3.org/2000/svg" xmlns:xlink="http://www.w3.org/1999/xlink" x="0px" y="0px"
	 width="44px" height="44px" viewBox="0 0 44 44" enable-background="new 0 0 44 44" xml:space="preserve">
<g>
	<defs>
		<rect id="SVGID_1_" width="44" height="44"/>
	</defs>
	<clipPath id="SVGID_2_">
		<use xlink:href="#SVGID_1_"  overflow="visible"/>
	</clipPath>
	<path clip-path="url(#SVGID_2_)" fill="#3072B8" d="M31.627,22.342c0-0.5-0.405-0.906-0.906-0.906c-0.5,0-0.905,0.406-0.905,0.906
		c0,4.309-3.506,7.815-7.816,7.815c-4.309,0-7.815-3.506-7.815-7.815c0-0.5-0.406-0.906-0.906-0.906s-0.906,0.406-0.906,0.906
		c0,4.475,3.075,8.236,7.219,9.309v3.764h-3.636v1.359h12.226v-1.359h-3.773v-3.764C28.553,30.578,31.627,26.817,31.627,22.342"/>
	<path clip-path="url(#SVGID_2_)" fill="#3072B8" d="M22,28.899c3.741,0,6.774-3.033,6.774-6.774v-0.773H22v-1.51h6.774v-1.006H22
		v-1.51h6.774V16.32H22v-1.509h6.774v-1.025c0-3.741-3.033-6.774-6.774-6.774s-6.774,3.033-6.774,6.774v8.339
		C15.226,25.867,18.259,28.899,22,28.899"/>
</g>
</svg>
