<?xml version="1.0" encoding="utf-8"?>
<!-- Generator: Adobe Illustrator 17.0.2, SVG Export Plug-In . SVG Version: 6.00 Build 0)  -->
<!DOCTYPE svg PUBLIC "-//W3C//DTD SVG 1.1//EN" "http://www.w3.org/Graphics/SVG/1.1/DTD/svg11.dtd">
<svg version="1.1" id="Lager_1" xmlns="http://www.w3.org/2000/svg" xmlns:xlink="http://www.w3.org/1999/xlink" x="0px" y="0px"
	 width="44px" height="44px" viewBox="0 0 44 44" enable-background="new 0 0 44 44" xml:space="preserve">
<g>
	<defs>
		<rect id="SVGID_1_" width="44" height="44"/>
	</defs>
	<clipPath id="SVGID_2_">
		<use xlink:href="#SVGID_1_"  overflow="visible"/>
	</clipPath>
	<path clip-path="url(#SVGID_2_)" fill="#FFF200" d="M26.203,32.126h-0.001h-0.001c-0.042,0.005-0.086,0.008-0.133,0.008
		c-0.387,0-0.89-0.209-1.179-0.7c-0.345,0.368-0.742,0.773-1.169,1.193l-0.006,0.006c0.008,0.016,0.015,0.031,0.023,0.047
		c0.211,0.397,0.858,0.511,1.236,0.401c0.006-0.002,0.012-0.004,0.018-0.006c0.001,0,0.002,0,0.003,0
		c0.004-0.003,0.008-0.006,0.011-0.009c0.449-0.345,0.855-0.664,1.202-0.941C26.205,32.125,26.204,32.126,26.203,32.126"/>
	<path clip-path="url(#SVGID_2_)" fill="#FFF200" d="M28.668,29.137c-0.004,0-0.009-0.001-0.013-0.001
		c-0.008-0.001-0.017-0.002-0.025-0.003c-0.099-0.01-0.196-0.026-0.292-0.047c-0.013-0.003-0.026-0.007-0.039-0.01
		c-0.41-0.099-0.79-0.299-1.118-0.582c0,0,0.002-0.002,0.003-0.003c-0.248,0.408-0.561,0.822-0.907,1.266
		c0.47,0.732,1.156,0.878,1.982,0.684c0.455-0.385,1.049-0.907,1.664-1.505C29.5,29.112,29.074,29.173,28.668,29.137"/>
	<path clip-path="url(#SVGID_2_)" fill="#FFF200" d="M21.86,22.944c0.253-0.162,0.561-0.526,0.853-1.018
		c-0.002-0.001-0.007-0.003-0.01-0.004c-0.043-0.011-0.238-0.06-0.48-0.134c-0.195,0.278-0.428,0.575-0.708,0.895l0.338,0.26h0.005
		L21.86,22.944z"/>
	<path clip-path="url(#SVGID_2_)" fill="#FFF200" d="M25.737,22.332c-0.543,0.889-1.199,1.572-1.446,1.724
		c0.705,0.384,1.421,0.565,2.022,0.201c0.457-0.276,1.22-1.005,1.776-1.855c-0.095,0.001-0.191,0.002-0.285,0.002
		C27.062,22.405,26.365,22.376,25.737,22.332"/>
	<path clip-path="url(#SVGID_2_)" fill="#FFF200" d="M27.498,25.458c0.179,0.436,0.26,0.835,0.264,1.211
		c1.28,0.375,4.27-0.738,5.297-2.391c0.001-0.002,0.002-0.003,0.003-0.004c0.001,0,0.001-0.001,0.001-0.001
		c0.067-0.696-0.199-1.304-0.97-1.732l-0.119-0.066l0.036,0.021C31.613,23.15,29.568,24.855,27.498,25.458"/>
	<path clip-path="url(#SVGID_2_)" d="M33.059,24.278L33.059,24.278c-1.027,1.653-4.018,2.766-5.297,2.392
		c0,0.078-0.003,0.155-0.008,0.232c0,0.003,0,0.006,0,0.009c-0.004,0.04-0.008,0.08-0.013,0.119
		c-0.005,0.038-0.009,0.075-0.015,0.112v0.002c-0.008,0.046-0.018,0.091-0.027,0.136c-0.006,0.023-0.011,0.045-0.017,0.068
		c-0.003,0.015-0.006,0.031-0.01,0.046c-0.018,0.065-0.036,0.129-0.057,0.194c-0.006,0.017-0.013,0.035-0.019,0.054
		c-0.017,0.048-0.034,0.096-0.054,0.143c-0.005,0.013-0.009,0.027-0.015,0.04c-0.005,0.009-0.008,0.018-0.012,0.027
		c-0.025,0.059-0.052,0.118-0.079,0.177c-0.011,0.021-0.021,0.043-0.032,0.064c-0.011,0.023-0.023,0.045-0.035,0.068
		c-0.013,0.026-0.027,0.052-0.041,0.078c-0.009,0.016-0.017,0.032-0.026,0.048c-0.012,0.021-0.023,0.043-0.036,0.064
		c-0.027,0.046-0.054,0.093-0.082,0.139c-0.001,0.001-0.002,0.002-0.003,0.004c0.328,0.282,0.709,0.482,1.118,0.582
		c0.013,0.003,0.027,0.006,0.04,0.009c0.096,0.021,0.192,0.038,0.291,0.048c0.009,0.001,0.017,0.002,0.025,0.002
		c0.005,0.001,0.009,0.001,0.013,0.001c0.407,0.037,0.832-0.025,1.256-0.201v-0.001c0.164-0.159,0.329-0.323,0.493-0.492
		c0.014-0.013,0.028-0.028,0.042-0.042c0.011-0.012,0.022-0.023,0.032-0.035c0.029-0.029,0.058-0.059,0.086-0.088
		c0.03-0.031,0.059-0.063,0.089-0.094c0.015-0.016,0.03-0.032,0.044-0.048c0.255-0.27,0.505-0.55,0.74-0.834
		c0.002-0.002,0.004-0.004,0.006-0.006c0.043-0.054,0.088-0.107,0.131-0.161c0.005-0.006,0.009-0.012,0.014-0.018
		c0.041-0.05,0.081-0.101,0.121-0.152c0.005-0.007,0.012-0.015,0.017-0.021c0.042-0.054,0.082-0.107,0.122-0.16
		c0.003-0.004,0.006-0.008,0.009-0.012c0.042-0.056,0.082-0.111,0.123-0.167c0.016-0.022,0.032-0.045,0.048-0.068
		c0.021-0.03,0.043-0.06,0.064-0.09c0.023-0.034,0.045-0.067,0.068-0.1c0.013-0.019,0.026-0.038,0.039-0.057
		c0.025-0.038,0.05-0.076,0.074-0.114c0.009-0.013,0.017-0.026,0.025-0.038c0.012-0.021,0.025-0.041,0.038-0.061
		c0.002-0.002,0.002-0.005,0.005-0.007c0.012-0.021,0.025-0.041,0.038-0.062c0.002-0.004,0.005-0.009,0.007-0.013
		c0.023-0.038,0.045-0.075,0.067-0.112c-0.021,0.037-0.044,0.075-0.067,0.112c0.353-0.58,0.596-1.148,0.659-1.669
		c0-0.001,0-0.002,0-0.004c0-0.004,0-0.008,0.002-0.013c0-0.005,0.001-0.01,0.001-0.015c0.001-0.003,0.001-0.007,0.001-0.011
		c0.001-0.004,0.001-0.007,0.002-0.011c-0.001,0.001-0.001,0.001-0.002,0.002C33.061,24.276,33.06,24.277,33.059,24.278"/>
	<path clip-path="url(#SVGID_2_)" d="M26.278,29.757L26.278,29.757c-0.003,0.004-0.007,0.008-0.009,0.012
		c-0.127,0.162-0.26,0.332-0.394,0.506c-0.018,0.023-0.036,0.046-0.054,0.069c-0.032,0.041-0.064,0.082-0.096,0.124
		c-0.131,0.172-0.292,0.365-0.48,0.574c-0.11,0.125-0.23,0.255-0.356,0.391c0.288,0.49,0.793,0.699,1.18,0.701
		c0.046,0,0.09-0.003,0.133-0.008h0.002c0.001,0,0.002-0.001,0.003-0.001l0.002-0.002c0.384-0.306,0.693-0.558,0.909-0.736
		c0.165-0.137,0.277-0.231,0.325-0.271c0.03-0.025,0.102-0.083,0.206-0.168c0.115-0.093,0.271-0.221,0.457-0.377
		c0.011-0.009,0.023-0.02,0.035-0.03c0.037-0.03,0.075-0.062,0.113-0.095l0.006-0.005C27.434,30.635,26.748,30.489,26.278,29.757"/>
	<path clip-path="url(#SVGID_2_)" d="M24.973,33.081c-0.378,0.11-1.026-0.004-1.237-0.401c-0.007-0.016-0.015-0.031-0.022-0.047
		c-0.096,0.094-0.193,0.19-0.293,0.286c-0.07,0.069-0.142,0.138-0.214,0.207c-0.012,0.013-0.026,0.026-0.038,0.038
		c-0.022,0.021-0.045,0.043-0.067,0.064c-0.052,0.05-0.103,0.1-0.155,0.149c-0.001,0.001-0.003,0.002-0.003,0.003
		c-1.454,1.39-3.036,2.803-3.859,3.507c-0.004,0.003-0.007,0.006-0.01,0.01c-0.036,0.03-0.07,0.059-0.103,0.086
		c-0.03,0.025-0.057,0.048-0.083,0.071c-0.012,0.009-0.022,0.019-0.032,0.027c-0.017,0.013-0.032,0.027-0.047,0.039
		c-0.007,0.007-0.015,0.012-0.021,0.018c-0.003,0.002-0.006,0.005-0.008,0.007c-0.011,0.008-0.02,0.016-0.03,0.024
		c-0.01,0.009-0.02,0.018-0.031,0.026c-0.007,0.006-0.014,0.011-0.021,0.017c-0.013,0.011-0.026,0.021-0.039,0.031
		c-0.006,0.005-0.011,0.01-0.018,0.014c-0.017,0.013-0.032,0.026-0.045,0.036c0.128-0.064,0.257-0.131,0.388-0.199
		c0.009-0.006,0.02-0.011,0.03-0.017c0.123-0.065,0.248-0.133,0.373-0.202c0.01-0.006,0.02-0.011,0.029-0.017
		c0.127-0.07,0.254-0.143,0.381-0.217c0.143-0.083,0.286-0.167,0.43-0.255c0.005-0.002,0.011-0.005,0.016-0.009
		c0.133-0.08,0.268-0.163,0.402-0.247c0.006-0.003,0.011-0.006,0.017-0.01c0.037-0.024,0.075-0.047,0.113-0.071
		c0.006-0.004,0.012-0.008,0.018-0.012c0.026-0.016,0.051-0.032,0.077-0.048c0.016-0.011,0.033-0.021,0.05-0.032
		c0.012-0.008,0.025-0.017,0.038-0.025c-0.011,0.008-0.021,0.015-0.033,0.022c0.039-0.024,0.077-0.049,0.115-0.074
		c0.016-0.01,0.031-0.019,0.046-0.029c0.005-0.003,0.01-0.006,0.015-0.01c0.049-0.031,0.098-0.063,0.147-0.095
		c0.002-0.001,0.004-0.002,0.005-0.003c0.001-0.001,0.003-0.002,0.004-0.002c0.003-0.002,0.005-0.004,0.008-0.006
		c0.002-0.001,0.003-0.002,0.005-0.003c0.053-0.034,0.105-0.069,0.158-0.104c0.015-0.009,0.03-0.019,0.045-0.029
		c0.063-0.041,0.125-0.082,0.187-0.124c1.198-0.797,2.364-1.656,3.333-2.4c-0.001,0-0.002,0.001-0.003,0.001
		C24.985,33.077,24.978,33.079,24.973,33.081"/>
	<path clip-path="url(#SVGID_2_)" fill="#FFF200" d="M23.243,19.792c-0.058,0.059-0.115,0.118-0.173,0.178
		c-0.088,0.435-0.282,0.945-0.674,1.557c0.194,0.058,0.591,0.161,0.835,0.209l1.471-2.019L23.243,19.792z"/>
	<path clip-path="url(#SVGID_2_)" fill="#FFF200" d="M34.31,12.572l-4.548,0.236l-2.059,2.837c1.462-0.95,3.019-1.693,4.805-2.252
		c0.511-0.159,0.998-0.275,1.461-0.352L34.31,12.572z"/>
	<path clip-path="url(#SVGID_2_)" fill="#FFF200" d="M22.832,17.671c0.004,0.01,0.008,0.02,0.012,0.031
		c0.009,0.022,0.018,0.045,0.027,0.068c0.003,0.009,0.006,0.018,0.009,0.028c0.013,0.033,0.024,0.066,0.036,0.1
		c0.001,0.001,0.001,0.003,0.001,0.004c0.029,0.085,0.056,0.173,0.08,0.264c0.002,0.007,0.004,0.016,0.006,0.023
		c0.01,0.038,0.019,0.077,0.028,0.115c0.005,0.02,0.008,0.039,0.013,0.059c0.005,0.027,0.012,0.054,0.017,0.082
		c0.006,0.035,0.012,0.071,0.017,0.106c0.002,0.012,0.005,0.025,0.006,0.037c0.007,0.048,0.013,0.096,0.017,0.144
		c0.022,0.223,0.045,0.469,0.031,0.748c0.001,0,0.001-0.001,0.003-0.001c0.144-0.146,0.288-0.29,0.432-0.431
		c0.016-0.015,0.031-0.03,0.046-0.045c0.133-0.131,0.266-0.259,0.399-0.386c0.028-0.026,0.056-0.052,0.083-0.079
		c0.122-0.115,0.245-0.229,0.366-0.341c0.041-0.038,0.082-0.074,0.123-0.112c0.111-0.1,0.222-0.201,0.333-0.299
		c0.055-0.048,0.108-0.095,0.162-0.142c0.1-0.086,0.199-0.173,0.299-0.257c0.069-0.059,0.14-0.117,0.209-0.175
		c0.086-0.071,0.172-0.142,0.258-0.212c0.092-0.074,0.185-0.147,0.278-0.22c0.066-0.051,0.131-0.104,0.197-0.155
		c0.16-0.123,0.321-0.244,0.484-0.361l-3.262,0.169c-0.066,0.102-0.13,0.205-0.194,0.309c-0.045,0.072-0.088,0.144-0.132,0.217
		c-0.016,0.028-0.335,0.586-0.391,0.69C22.826,17.656,22.829,17.663,22.832,17.671"/>
	<path clip-path="url(#SVGID_2_)" fill="#FFF200" d="M36.534,12.427c-0.092-0.795-0.35-1.406-0.731-1.856l-1.433,1.968
		L36.534,12.427z"/>
	<path clip-path="url(#SVGID_2_)" fill="#FFF200" d="M31.945,9.749c-1.711,0.405-3.684,1.506-5.505,3.201l3.306-0.172L31.945,9.749z
		"/>
	<path clip-path="url(#SVGID_2_)" fill="#ED1C24" d="M27.633,15.69l2.091-2.881l-3.316,0.172c-1.023,0.958-1.996,2.104-2.848,3.421
		l3.287-0.171C27.107,16.044,27.368,15.864,27.633,15.69"/>
	<path clip-path="url(#SVGID_2_)" fill="#ED1C24" d="M34.011,13.033c0.466-0.075,0.906-0.111,1.32-0.111
		c0.444,0,0.859,0.041,1.24,0.118c-0.002-0.205-0.013-0.399-0.034-0.584l-2.188,0.114L34.011,13.033z"/>
	<path clip-path="url(#SVGID_2_)" fill="#ED1C24" d="M34.333,12.541l1.452-1.994c-0.037-0.043-0.075-0.084-0.115-0.124
		c-0.562-0.57-1.36-0.849-2.319-0.849h-0.015c-0.423,0-0.874,0.056-1.347,0.164l-2.204,3.039L34.333,12.541z"/>
	<path clip-path="url(#SVGID_2_)" fill="#ED1C24" d="M31.833,15.973l1.88-2.582c-0.357,0.072-0.728,0.167-1.116,0.288
		c-1.947,0.609-3.616,1.438-5.192,2.523L31.833,15.973z"/>
	<polygon clip-path="url(#SVGID_2_)" fill="#ED1C24" points="36.16,15.779 31.848,16.002 29.34,19.447 33.646,19.224 	"/>
	<path clip-path="url(#SVGID_2_)" fill="#ED1C24" d="M31.81,21.788c1.164-0.198,2.325-0.502,3.401-0.956
		c1.204-0.509,2.117-1.134,2.77-1.803l-4.32,0.224L31.81,21.788z"/>
	<path clip-path="url(#SVGID_2_)" fill="#ED1C24" d="M27.369,22.102l1.91-2.622l-4.53,0.235l-1.474,2.029
		c0.265,0.048,0.625,0.103,1.063,0.156C25.136,21.996,26.187,22.084,27.369,22.102"/>
	<path clip-path="url(#SVGID_2_)" fill="#ED1C24" d="M23.274,19.761l1.451-0.075l2.206-3.029l0.179-0.247
		C25.81,17.34,24.566,18.45,23.274,19.761"/>
	<path clip-path="url(#SVGID_2_)" fill="#ED1C24" d="M39.186,15.593c-0.187-0.759-0.696-1.419-1.504-1.848l-1.461,2.002
		L39.186,15.593z"/>
	<path clip-path="url(#SVGID_2_)" fill="#FFF200" d="M29.317,19.478l-1.912,2.625c0.132,0.001,0.266,0.003,0.4,0.003
		c1.24,0,2.603-0.083,3.963-0.311l1.855-2.54L29.317,19.478z"/>
	<path clip-path="url(#SVGID_2_)" fill="#FFF200" d="M31.81,16.005l-4.45,0.23c-0.059,0.041-0.117,0.082-0.175,0.123l-2.414,3.326
		l4.53-0.235L31.81,16.005z"/>
	<path clip-path="url(#SVGID_2_)" fill="#FFF200" d="M33.756,13.384l-1.885,2.587l4.312-0.223l1.472-2.017
		c-0.611-0.318-1.389-0.506-2.324-0.509C34.847,13.221,34.321,13.273,33.756,13.384"/>
	<path clip-path="url(#SVGID_2_)" fill="#FFF200" d="M39.193,15.622l-2.995,0.155l-2.515,3.445l4.33-0.225
		c0.859-0.894,1.256-1.864,1.254-2.738C39.267,16.041,39.241,15.828,39.193,15.622"/>
	<path clip-path="url(#SVGID_2_)" fill="#FFF200" d="M11.335,20.68l-2.92,1.888c0.824,0.192,1.68,0.264,2.457,0.262
		c1.04,0.001,1.937-0.126,2.403-0.247c0.034-0.008,0.065-0.016,0.093-0.025c0.002-0.001,0.003-0.001,0.005-0.001
		c0.029-0.009,0.056-0.017,0.08-0.026c-0.121-0.316-0.207-0.68-0.248-1.095L11.335,20.68z"/>
	<path clip-path="url(#SVGID_2_)" fill="#ED1C24" d="M9.864,13.743l-2.385,1.555c0.029,0.11,0.062,0.222,0.102,0.337
		c0.489-0.13,1.025-0.201,1.599-0.201c0.891,0,1.875,0.172,2.924,0.562l0.609-0.394c-0.019-0.062-0.031-0.128-0.034-0.196
		c-0.006-0.153,0.036-0.296,0.108-0.419L9.864,13.743z"/>
	<path clip-path="url(#SVGID_2_)" fill="#ED1C24" d="M11.809,12.439c-0.568-0.155-1.108-0.229-1.602-0.229
		c-0.853,0-1.567,0.219-2.061,0.609c-0.043,0.034-0.085,0.07-0.125,0.108L9.86,13.71L11.809,12.439z"/>
	<path clip-path="url(#SVGID_2_)" fill="#ED1C24" d="M16.801,16.298c0.134-0.038,0.268-0.075,0.4-0.11
		c-0.001-0.002-0.002-0.002-0.003-0.004c-0.243-0.292-0.49-0.567-0.74-0.825c-0.019-0.018-0.036-0.038-0.054-0.056
		c-0.063-0.064-0.127-0.127-0.19-0.189c-0.035-0.035-0.072-0.07-0.108-0.105c-0.056-0.053-0.11-0.105-0.166-0.156
		c-0.046-0.043-0.094-0.086-0.141-0.128c-0.048-0.043-0.096-0.086-0.144-0.128c-0.059-0.052-0.118-0.102-0.179-0.152
		c-0.037-0.031-0.074-0.063-0.112-0.095c-0.099-0.08-0.197-0.159-0.296-0.235l-0.62,0.401
		C15.406,14.677,16.292,15.391,16.801,16.298"/>
	<path clip-path="url(#SVGID_2_)" fill="#ED1C24" d="M15.901,16.28l0.36,0.153c-0.557-0.948-1.087-1.556-2.087-1.422
		c0.056,0.102,0.089,0.219,0.094,0.342c0.003,0.076-0.006,0.151-0.024,0.222L15.901,16.28z"/>
	<path clip-path="url(#SVGID_2_)" fill="#FFF200" d="M12.8,14.961c0.088-0.138,0.219-0.248,0.375-0.31
		c0.407-0.165,0.824-0.203,1.228-0.142l0.639-0.413c-1.087-0.829-2.184-1.366-3.194-1.646l-1.955,1.274L12.8,14.961z"/>
	<path clip-path="url(#SVGID_2_)" fill="#FFF200" d="M9.83,13.729l-1.833-0.78c-0.4,0.38-0.627,0.891-0.629,1.537
		c0,0.242,0.033,0.503,0.103,0.781L9.83,13.729z"/>
	<path clip-path="url(#SVGID_2_)" fill="#FFF200" d="M15.214,16.31c0.296,0.257,0.382,0.346,0.4,0.375
		c0.197-0.076,0.414-0.15,0.64-0.222l-2.019-0.859c-0.094,0.313-0.384,0.548-0.732,0.558c-0.357,0.012-0.67-0.212-0.782-0.53
		l-0.583,0.377c0.109,0.04,0.217,0.084,0.327,0.129c0.024,0.01,0.048,0.02,0.073,0.031c0.093,0.039,0.186,0.08,0.279,0.123
		c0.048,0.022,0.097,0.044,0.146,0.067c0.052,0.025,0.105,0.051,0.157,0.077c0.096,0.046,0.192,0.095,0.288,0.145
		c0.009,0.005,0.017,0.01,0.025,0.014c0.14,0.073,0.28,0.151,0.421,0.232C14.443,16.29,14.763,15.922,15.214,16.31"/>
	<path clip-path="url(#SVGID_2_)" fill="#FFF200" d="M9.18,15.734c-0.573,0-1.102,0.074-1.58,0.207l2.778,1.171l1.41-0.912
		C10.848,15.876,9.973,15.734,9.18,15.734"/>
	<path clip-path="url(#SVGID_2_)" fill="#FFF200" d="M10.381,17.145l-2.967,1.918l3.918,1.583l2.002-1.294
		c0.007-0.039,0.013-0.077,0.022-0.116c-0.467-0.189-0.804-0.504-0.941-0.701c-0.067-0.096-0.021-0.257,0.136-0.475L10.381,17.145z"
		/>
	<path clip-path="url(#SVGID_2_)" fill="#FFF200" d="M4.934,18.094c-0.131,0.322-0.199,0.659-0.199,0.998
		c0,0.47,0.13,0.946,0.409,1.404l2.205-1.426L4.934,18.094z"/>
	<path clip-path="url(#SVGID_2_)" fill="#ED1C24" d="M7.383,19.083L5.16,20.522c0.023,0.037,0.046,0.075,0.071,0.112
		c0.707,1.041,1.886,1.625,3.143,1.925l2.927-1.892L7.383,19.083z"/>
	<path clip-path="url(#SVGID_2_)" fill="#ED1C24" d="M10.348,17.132l-2.795-1.178c-0.636,0.182-1.182,0.469-1.617,0.823
		c-0.456,0.371-0.791,0.814-0.99,1.29l2.435,0.984L10.348,17.132z"/>
	<path clip-path="url(#SVGID_2_)" fill="#ED1C24" d="M11.365,20.66l1.836,0.742c-0.052-0.566-0.018-1.231,0.125-2.01L11.365,20.66z"
		/>
	<path clip-path="url(#SVGID_2_)" fill="#ED1C24" d="M13.452,16.943c-0.009-0.005-0.018-0.01-0.027-0.014
		c-0.009-0.006-0.018-0.011-0.027-0.016h-0.001c-0.076-0.041-0.152-0.081-0.227-0.12c-0.016-0.007-0.029-0.014-0.044-0.021
		c-0.058-0.03-0.116-0.059-0.173-0.086c-0.021-0.01-0.041-0.02-0.062-0.03c-0.051-0.024-0.102-0.048-0.152-0.071
		c-0.024-0.011-0.048-0.022-0.072-0.032c-0.047-0.022-0.095-0.043-0.142-0.064c-0.024-0.01-0.049-0.021-0.074-0.031
		c-0.047-0.02-0.093-0.04-0.14-0.059c-0.024-0.01-0.049-0.02-0.072-0.029c-0.05-0.02-0.099-0.039-0.147-0.058
		c-0.021-0.007-0.042-0.016-0.062-0.023c-0.069-0.026-0.138-0.051-0.207-0.075l-1.411,0.913l2.157,0.909
		c0.174-0.231,0.471-0.524,0.897-0.87c0.053-0.044,0.104-0.087,0.155-0.129C13.564,17.004,13.508,16.974,13.452,16.943"/>
	<path clip-path="url(#SVGID_2_)" fill="#FFFFFF" d="M15.141,21.736c-0.009-0.062-0.012-0.123-0.012-0.183
		c0-0.652,0.486-1.223,1.161-1.312c0.063-0.008,0.125-0.013,0.187-0.013c0.537,0,1.017,0.315,1.23,0.79
		c-0.023-0.257-0.073-0.526-0.151-0.797c-0.367-1.261-1.297-2.077-2.211-1.822c-0.913,0.257-1.319,1.498-0.955,2.763
		c0.224,0.775,0.728,1.237,1.289,1.461C15.395,22.419,15.193,22.107,15.141,21.736"/>
	<path clip-path="url(#SVGID_2_)" fill="#FFFFFF" d="M20.402,16.771c-0.946-0.076-1.798,1.013-1.761,2.33
		c0.021,0.736,0.238,1.275,0.585,1.611c-0.13-0.173-0.221-0.38-0.253-0.609c-0.009-0.062-0.013-0.123-0.013-0.184
		c0-0.653,0.488-1.221,1.162-1.311c0.063-0.008,0.127-0.013,0.189-0.013c0.66,0,1.235,0.479,1.33,1.144
		c0.008,0.062,0.013,0.124,0.013,0.185c0,0.113-0.016,0.222-0.044,0.327c0.113-0.273,0.185-0.611,0.218-1.015
		C21.934,17.929,21.348,16.845,20.402,16.771"/>
	<path clip-path="url(#SVGID_2_)" fill="#FFF200" d="M17.444,22.388c0.199-0.226,0.317-0.519,0.317-0.832
		c0-0.059-0.004-0.117-0.012-0.175c-0.007-0.051-0.018-0.099-0.031-0.147c-0.148-0.557-0.66-0.946-1.242-0.946
		c-0.059,0-0.119,0.004-0.178,0.012c-0.645,0.086-1.11,0.631-1.11,1.253c0,0.057,0.004,0.116,0.012,0.175
		c0.064,0.454,0.367,0.819,0.767,0.989c0.157,0.067,0.329,0.104,0.508,0.104c0.059,0,0.119-0.004,0.179-0.012
		c0.048-0.007,0.095-0.017,0.143-0.029C17.054,22.716,17.277,22.576,17.444,22.388 M16.62,21.805l0.009,0.08l0.07,0.616
		c-0.001,0-0.004,0.001-0.006,0.001c-0.021,0.005-0.066,0.012-0.084,0.015c-0.532,0.073-1.024-0.288-1.109-0.809
		c-0.001-0.007-0.003-0.013-0.003-0.019c-0.076-0.534,0.301-1.024,0.842-1.099c0.539-0.074,1.039,0.299,1.113,0.831
		c0.011,0.076,0.013,0.152,0.005,0.226c-0.021,0.216-0.116,0.416-0.262,0.571L16.62,21.805z"/>
	<path clip-path="url(#SVGID_2_)" fill="#FFF200" d="M20.311,18.655c-0.06,0-0.121,0.004-0.182,0.013
		c-0.644,0.086-1.109,0.628-1.109,1.252c0,0.057,0.004,0.116,0.012,0.175c0.05,0.356,0.246,0.656,0.519,0.851
		c0.215,0.153,0.475,0.241,0.753,0.241c0.06,0,0.12-0.003,0.18-0.012c0.277-0.038,0.52-0.16,0.708-0.336
		c0.249-0.233,0.402-0.561,0.402-0.915c0-0.058-0.005-0.117-0.013-0.176C21.491,19.113,20.942,18.655,20.311,18.655 M20.992,20.622
		l-0.616-0.474l0.067,0.735c-0.54,0.075-1.038-0.296-1.114-0.829c-0.076-0.532,0.302-1.022,0.842-1.095
		c0.541-0.077,1.039,0.297,1.114,0.829C21.329,20.107,21.21,20.412,20.992,20.622"/>
	<path clip-path="url(#SVGID_2_)" d="M38.445,13.897c-0.419-0.349-0.948-0.619-1.575-0.786v-0.012
		c0.002-1.285-0.357-2.248-0.987-2.887c-0.63-0.638-1.517-0.938-2.533-0.938c-3.226,0.009-7.855,2.964-10.684,8.038
		c-0.113-0.216-0.224-0.371-0.301-0.429c-0.206-0.151-0.44-0.265-0.156-0.843c0.285-0.583,0.09-0.663-1.361-1.08
		c-1.451-0.414-1.667-0.131-1.76,0.243l-0.213,0.57c-0.06,0.016-0.192,0.046-0.371,0.088c-0.223-1.015-0.108-2.166,1.09-2.519
		c0.001,0.034,0.003,0.069,0.008,0.105c0.06,0.427,0.461,0.726,0.897,0.666c0.437-0.061,0.739-0.454,0.679-0.886
		c-0.05-0.353-0.333-0.618-0.675-0.665c0,0-0.001-0.001-0.002-0.001c-0.003,0-0.006,0-0.008,0c-1.79-0.238-2.798,2.316-2.486,3.42
		c-0.151,0.037-0.317,0.079-0.489,0.123c-2.385-2.931-5.196-4.19-7.311-4.193c-0.904,0-1.685,0.231-2.246,0.673
		c-0.563,0.44-0.895,1.099-0.893,1.903c0,0.379,0.072,0.792,0.224,1.233c-0.598,0.193-1.119,0.477-1.546,0.824
		c-0.832,0.674-1.312,1.593-1.312,2.548c0,0.578,0.177,1.165,0.549,1.711c1.289,1.875,3.874,2.324,5.889,2.328
		c0.71,0,1.352-0.057,1.849-0.133c0.249-0.038,0.46-0.081,0.628-0.124c0.086-0.023,0.159-0.044,0.222-0.067
		c0.901,1.851,3.079,1.885,3.663,1.856c0.837-0.044,1.559,0.145,2.318,0.582c0.041-0.22,0.959-1.502,1.759-2.334
		c0.07-0.077,0.138-0.153,0.204-0.228c0.28-0.319,0.512-0.617,0.707-0.895c0.242,0.075,0.438,0.124,0.481,0.135
		c0.003,0.001,0.007,0.002,0.01,0.003c-0.292,0.493-0.6,0.856-0.853,1.018l-0.003-0.001h-0.004c-0.292,0.004-0.389-0.08-0.459,1.148
		l-0.693,0.107c-0.335,0.928-1.738,3.378-2.138,3.854c-0.045-0.608-0.503-1.448-0.733,0.024c-0.123,0.781,0.293,1.529,0.886,1.065
		c0.595-0.465,2.177-4.126,2.269-4.294l0.367-0.057c-0.08,1.073-0.216,1.601-0.233,1.737c-0.015,0.156-0.184,0.332-0.332,0.122
		c-0.146-0.21-0.422,0.021-0.115,0.552c0.307,0.532,0.526,0.424,0.611-0.082c0.053-0.33,0.249-1.522,0.391-2.379l0.782-0.123
		c-0.2,1.33-1.303,4.994-1.485,5.361c-0.064-0.449-0.548-0.574-0.653,0.321c-0.107,0.896,0.752,1.466,0.873,0.954
		c0.12-0.516,1.687-5.937,1.899-6.079c0.087-0.059,0.193-0.113,0.289-0.159c0.007,0.596-0.011,1.558-0.018,1.805
		c-0.011,0.462,0.254,0.692,0.718,0.131c0.465-0.561,0.37-0.969-0.051-0.642c-0.421,0.324-0.324-0.646-0.28-0.881
		c0.045-0.237,0.129-0.951,0.566-0.385c0.41,0.528,0.742,0.786,0.885,0.895c-0.218,0.313-1.703,2.777-2.045,3.82
		c-0.379,1.16,0.364,1.482,1.167,0.836c0.802-0.646,0.236-0.798-0.051-0.645c-0.288,0.156-0.557,0.191-0.336-0.451
		c0.171-0.501,1.198-2.361,1.744-3.31l-0.042,0.369c-0.074,0.695-0.098,1.099-0.064,1.338c0.064,0.449,0.319,0.607,0.888-0.044
		c0.163-0.214,0.023-0.385-0.239-0.313c-0.196,0.057-0.332,0.057-0.233-0.417c0.065-0.321,0.266-1.527,0.448-2.141h0.001
		c0.05,0.012,0.098,0.023,0.146,0.036c0.012,0.003,0.023,0.007,0.034,0.01c0.035,0.009,0.07,0.018,0.104,0.029
		c0.016,0.005,0.032,0.01,0.048,0.016c0.029,0.008,0.058,0.018,0.087,0.028c0.017,0.006,0.034,0.013,0.051,0.019
		c0.027,0.01,0.053,0.02,0.079,0.031c0.017,0.007,0.034,0.014,0.051,0.022c0.025,0.011,0.05,0.022,0.074,0.034
		c0.017,0.009,0.034,0.017,0.05,0.025c0.025,0.013,0.049,0.027,0.072,0.041c0.007,0.004,0.015,0.008,0.021,0.012
		c0.008,0.004,0.017,0.009,0.025,0.015c0.026,0.015,0.05,0.032,0.075,0.05c0.012,0.008,0.025,0.017,0.037,0.025
		c0.035,0.027,0.071,0.055,0.105,0.086c2.07-0.603,4.115-2.308,4.513-2.963l-0.037-0.02c-0.249-0.132-0.489-0.228-0.721-0.298
		c1.383-0.192,2.783-0.525,4.075-1.069c2.896-1.222,4.236-3.143,4.239-4.849C39.567,15.346,39.174,14.502,38.445,13.897
		 M15.364,14.35c0.038,0.031,0.075,0.063,0.112,0.095c0.06,0.05,0.119,0.1,0.179,0.151c0.048,0.043,0.096,0.086,0.144,0.129
		c0.047,0.042,0.094,0.084,0.14,0.128c0.057,0.051,0.111,0.103,0.167,0.156c0.036,0.035,0.073,0.07,0.108,0.105
		c0.063,0.062,0.127,0.125,0.19,0.189c0.018,0.018,0.035,0.037,0.054,0.056c0.25,0.258,0.497,0.532,0.74,0.825
		c0.001,0.001,0.002,0.003,0.003,0.003c-0.132,0.036-0.266,0.073-0.4,0.111c-0.509-0.907-1.395-1.621-2.353-1.782l0.62-0.402
		C15.167,14.191,15.265,14.27,15.364,14.35 M14.268,15.353c-0.005-0.123-0.038-0.239-0.094-0.342c1-0.133,1.53,0.475,2.087,1.423
		l-0.36-0.153l-1.658-0.706C14.262,15.505,14.27,15.43,14.268,15.353 M15.042,14.096l-0.639,0.413
		c-0.404-0.061-0.821-0.023-1.228,0.142c-0.156,0.062-0.287,0.172-0.375,0.31l-2.907-1.237l1.955-1.274
		C12.858,12.73,13.955,13.267,15.042,14.096 M12.677,15.407c0.003,0.068,0.016,0.133,0.035,0.196l-0.609,0.393
		c-1.05-0.39-2.033-0.561-2.924-0.561c-0.574,0-1.11,0.071-1.6,0.2c-0.039-0.115-0.073-0.227-0.101-0.337l2.385-1.554l2.922,1.243
		C12.713,15.111,12.672,15.254,12.677,15.407 M12.415,18.535c0.137,0.197,0.474,0.513,0.941,0.701
		c-0.009,0.039-0.015,0.077-0.022,0.116l-2.002,1.295l-3.918-1.583l2.967-1.919l2.17,0.915
		C12.393,18.279,12.348,18.439,12.415,18.535 M13.201,21.403l-1.836-0.743l1.961-1.267C13.183,20.171,13.15,20.836,13.201,21.403
		 M13.203,21.415L13.203,21.415L13.166,21.4L13.203,21.415z M10.377,17.112l-2.778-1.17c0.479-0.134,1.008-0.208,1.58-0.208
		c0.793,0,1.669,0.142,2.608,0.467L10.377,17.112z M8.146,12.819c0.494-0.389,1.207-0.609,2.061-0.608
		c0.494-0.001,1.034,0.074,1.602,0.228L9.86,13.71l-1.839-0.783C8.061,12.89,8.103,12.854,8.146,12.819 M7.997,12.949L9.83,13.73
		l-2.359,1.538c-0.069-0.279-0.103-0.54-0.103-0.781C7.37,13.841,7.597,13.329,7.997,12.949 M5.935,16.777
		c0.436-0.354,0.981-0.641,1.617-0.823l2.795,1.178L7.38,19.051l-2.435-0.985C5.144,17.59,5.479,17.147,5.935,16.777 M4.734,19.092
		c0-0.34,0.069-0.676,0.2-0.998l2.415,0.976l-2.205,1.426C4.865,20.038,4.735,19.562,4.734,19.092 M5.231,20.634
		c-0.026-0.037-0.048-0.075-0.071-0.113l2.223-1.437l3.918,1.583l-2.927,1.892C7.117,22.259,5.938,21.675,5.231,20.634
		 M13.453,22.532c-0.025,0.008-0.051,0.016-0.08,0.025c-0.002,0-0.003,0.001-0.005,0.001c-0.028,0.009-0.059,0.017-0.093,0.026
		c-0.466,0.12-1.363,0.247-2.403,0.247c-0.777,0.001-1.633-0.071-2.457-0.263l2.92-1.888l1.87,0.756
		C13.246,21.852,13.332,22.215,13.453,22.532 M13.466,17.165c-0.427,0.347-0.724,0.64-0.897,0.87l-2.157-0.909l1.411-0.913
		c0.068,0.024,0.137,0.05,0.206,0.075c0.02,0.008,0.042,0.016,0.062,0.024c0.049,0.018,0.097,0.037,0.147,0.057
		c0.024,0.01,0.048,0.02,0.072,0.029c0.047,0.02,0.094,0.039,0.141,0.059c0.025,0.011,0.049,0.021,0.073,0.032
		c0.048,0.021,0.096,0.041,0.143,0.063c0.024,0.011,0.047,0.021,0.072,0.032c0.049,0.024,0.1,0.047,0.151,0.071
		c0.021,0.01,0.042,0.02,0.062,0.03c0.058,0.028,0.115,0.057,0.173,0.086c0.015,0.007,0.029,0.015,0.044,0.022
		c0.075,0.039,0.152,0.079,0.228,0.12c0.009,0.005,0.018,0.01,0.027,0.015c0.065,0.035,0.131,0.071,0.196,0.107
		C13.57,17.079,13.518,17.122,13.466,17.165 M13.854,16.827c-0.141-0.081-0.281-0.158-0.421-0.232
		c-0.009-0.004-0.017-0.009-0.025-0.013c-0.096-0.05-0.192-0.099-0.288-0.145c-0.053-0.026-0.106-0.052-0.157-0.077
		c-0.049-0.023-0.098-0.046-0.146-0.068c-0.094-0.042-0.187-0.083-0.279-0.123c-0.025-0.01-0.05-0.02-0.074-0.03
		c-0.109-0.046-0.218-0.089-0.326-0.13l0.583-0.377c0.112,0.319,0.424,0.543,0.782,0.531c0.348-0.011,0.637-0.246,0.731-0.559
		l2.02,0.859c-0.226,0.072-0.444,0.147-0.641,0.223c-0.017-0.029-0.103-0.119-0.399-0.375
		C14.762,15.922,14.442,16.291,13.854,16.827 M14.389,21.162c-0.364-1.265,0.043-2.505,0.955-2.763
		c0.914-0.254,1.845,0.562,2.211,1.823c0.078,0.271,0.129,0.54,0.151,0.797c-0.213-0.475-0.693-0.79-1.23-0.79
		c-0.062,0-0.124,0.004-0.186,0.013c-0.676,0.089-1.162,0.66-1.162,1.311c0,0.06,0.004,0.122,0.012,0.183
		c0.052,0.37,0.254,0.683,0.538,0.888C15.117,22.399,14.613,21.938,14.389,21.162 M16.654,22.81L16.654,22.81
		c-0.061,0.008-0.12,0.012-0.179,0.012c-0.18,0-0.352-0.037-0.508-0.105c-0.4-0.17-0.703-0.534-0.767-0.989
		c-0.008-0.059-0.012-0.117-0.012-0.175c0-0.621,0.465-1.166,1.109-1.252c0.06-0.008,0.12-0.012,0.179-0.012
		c0.582,0,1.094,0.389,1.242,0.946c0.012,0.048,0.023,0.096,0.031,0.147c0.008,0.058,0.012,0.116,0.012,0.174
		c0,0.314-0.118,0.607-0.317,0.833c-0.167,0.188-0.39,0.328-0.648,0.393C16.749,22.793,16.702,22.803,16.654,22.81 M16.967,23.335
		c1.36,0.029,1.965,0.165,2.899-1.264C19.643,23.87,19.229,25.083,16.967,23.335 M21.192,20.84
		c-0.188,0.176-0.432,0.298-0.708,0.336c-0.06,0.008-0.121,0.012-0.18,0.012c-0.278,0-0.539-0.088-0.753-0.241
		c-0.274-0.195-0.469-0.495-0.519-0.852c-0.008-0.059-0.012-0.117-0.012-0.175c0-0.623,0.465-1.165,1.109-1.252
		c0.061-0.008,0.122-0.012,0.181-0.012c0.631,0,1.18,0.457,1.27,1.093c0.008,0.059,0.013,0.118,0.013,0.176
		C21.593,20.279,21.441,20.607,21.192,20.84 M21.828,19.236c-0.033,0.404-0.105,0.742-0.218,1.015
		c0.027-0.105,0.043-0.214,0.043-0.326c0-0.061-0.004-0.123-0.013-0.185c-0.094-0.666-0.67-1.145-1.329-1.145
		c-0.063,0-0.126,0.005-0.19,0.013c-0.673,0.091-1.161,0.658-1.161,1.312c0,0.06,0.004,0.121,0.012,0.183
		c0.033,0.23,0.124,0.436,0.254,0.609c-0.347-0.336-0.564-0.875-0.585-1.61c-0.037-1.318,0.814-2.406,1.761-2.331
		C21.348,16.845,21.933,17.93,21.828,19.236 M21.793,24.029c0.018-0.103,0.03-0.174,0.036-0.201
		c0.038-0.213-0.016-0.547,0.555-0.088c0.077,0.062,0.151,0.115,0.221,0.164L21.793,24.029z M39.185,15.593l-2.965,0.154
		l1.461-2.002C38.489,14.174,38.998,14.834,39.185,15.593 M37.654,13.731l-1.472,2.018l-4.312,0.223l1.885-2.588
		c0.565-0.11,1.091-0.162,1.575-0.162C36.266,13.225,37.043,13.413,37.654,13.731 M27.185,16.358
		c0.058-0.041,0.116-0.082,0.175-0.123l4.45-0.23l-2.509,3.444l-4.53,0.235L27.185,16.358z M24.725,19.687l-1.451,0.074
		c1.293-1.311,2.536-2.421,3.836-3.35l0.001-0.001l-0.18,0.248L24.725,19.687z M32.597,13.68c0.388-0.122,0.759-0.216,1.116-0.288
		l-1.88,2.582l-4.428,0.229C28.981,15.117,30.65,14.289,32.597,13.68 M27.703,15.645l2.058-2.837l4.549-0.236l-0.341,0.469
		c-0.463,0.077-0.951,0.193-1.461,0.352C30.722,13.952,29.164,14.695,27.703,15.645 M31.848,16.003l4.311-0.224l-2.514,3.445
		l-4.306,0.223L31.848,16.003z M36.571,13.041c-0.382-0.078-0.797-0.119-1.241-0.119c-0.414,0-0.854,0.036-1.32,0.111l0.338-0.463
		l2.188-0.113C36.557,12.642,36.569,12.836,36.571,13.041 M36.534,12.427l-2.164,0.112l1.433-1.968
		C36.184,11.021,36.442,11.632,36.534,12.427 M33.335,9.574h0.015c0.96,0,1.758,0.279,2.319,0.848
		c0.04,0.041,0.078,0.082,0.115,0.125l-1.452,1.994l-4.548,0.235l2.205-3.038C32.461,9.63,32.913,9.574,33.335,9.574 M31.945,9.749
		l-2.199,3.03l-3.305,0.171C28.261,11.255,30.234,10.154,31.945,9.749 M26.407,12.981l3.316-0.172l-2.09,2.881
		c-0.265,0.174-0.527,0.354-0.786,0.542l-3.287,0.17C24.411,15.085,25.384,13.939,26.407,12.981 M22.992,17.339
		c0.003-0.004,0.006-0.007,0.008-0.011c0.054-0.097,0.109-0.192,0.165-0.286c0.016-0.028,0.033-0.055,0.049-0.083
		c0.044-0.073,0.088-0.145,0.132-0.217c0.064-0.104,0.128-0.207,0.194-0.309l3.262-0.169c-0.162,0.117-0.323,0.238-0.484,0.361
		c-0.066,0.051-0.131,0.104-0.197,0.155c-0.093,0.073-0.186,0.145-0.278,0.22c-0.086,0.07-0.172,0.141-0.258,0.212
		c-0.069,0.058-0.14,0.116-0.209,0.175c-0.1,0.084-0.199,0.171-0.299,0.257c-0.054,0.047-0.107,0.094-0.162,0.142
		c-0.111,0.098-0.222,0.199-0.333,0.299c-0.041,0.038-0.082,0.074-0.123,0.112c-0.121,0.112-0.244,0.226-0.366,0.341
		c-0.027,0.027-0.055,0.053-0.083,0.079c-0.133,0.127-0.266,0.255-0.399,0.386c-0.015,0.015-0.031,0.03-0.045,0.045
		c-0.145,0.141-0.289,0.285-0.433,0.431c-0.001,0-0.001,0.001-0.003,0.001c0.015-0.279-0.008-0.525-0.03-0.748
		c-0.005-0.048-0.011-0.096-0.017-0.144c-0.002-0.012-0.005-0.025-0.007-0.037c-0.005-0.035-0.01-0.071-0.017-0.106
		c-0.005-0.028-0.011-0.055-0.017-0.082c-0.005-0.02-0.008-0.039-0.012-0.059c-0.009-0.038-0.019-0.077-0.029-0.115
		c-0.002-0.007-0.004-0.016-0.006-0.023c-0.024-0.091-0.051-0.179-0.079-0.264c-0.001-0.001-0.001-0.003-0.002-0.004
		c-0.011-0.034-0.023-0.067-0.036-0.1c-0.003-0.009-0.006-0.018-0.009-0.028c-0.009-0.023-0.018-0.046-0.027-0.068
		c-0.004-0.011-0.008-0.021-0.012-0.031c-0.003-0.008-0.006-0.016-0.009-0.024C22.878,17.544,22.935,17.441,22.992,17.339
		 M22.396,21.528c0.392-0.613,0.586-1.123,0.674-1.558c0.057-0.059,0.115-0.119,0.173-0.177l1.459-0.076l-1.471,2.02
		C22.987,21.689,22.59,21.585,22.396,21.528 M23.275,21.744l1.474-2.029l4.53-0.235l-1.91,2.622
		c-1.182-0.018-2.233-0.106-3.031-0.202C23.9,21.847,23.54,21.792,23.275,21.744 M25.774,25.333l-0.016,0.149
		c-0.306-0.241-0.711-0.612-0.846-0.806c0.134,0.032,0.261,0.059,0.378,0.083c0.005,0.001,0.009,0.002,0.013,0.003
		c0.037,0.008,0.073,0.015,0.108,0.022c0.147,0.029,0.291,0.055,0.431,0.08c0.001,0,0.002,0,0.004,0
		C25.822,25.014,25.8,25.15,25.774,25.333 M26.312,24.258c-0.6,0.364-1.316,0.182-2.021-0.201c0.247-0.152,0.903-0.835,1.446-1.724
		c0.628,0.043,1.325,0.072,2.068,0.072c0.093,0,0.189-0.001,0.284-0.002C27.533,23.252,26.77,23.982,26.312,24.258 M27.804,22.106
		c-0.134,0-0.268-0.001-0.4-0.003l1.912-2.625l4.306-0.223l-1.855,2.54C30.408,22.023,29.044,22.106,27.804,22.106 M35.211,20.832
		c-1.076,0.454-2.237,0.758-3.401,0.956l1.85-2.535l4.321-0.224C37.328,19.698,36.415,20.324,35.211,20.832 M38.012,18.998
		l-4.329,0.224l2.514-3.444l2.995-0.155c0.048,0.206,0.074,0.419,0.075,0.637C39.268,17.134,38.871,18.104,38.012,18.998"/>
	<path clip-path="url(#SVGID_2_)" d="M17.452,21.421c-0.074-0.531-0.575-0.904-1.114-0.83c-0.54,0.074-0.918,0.565-0.842,1.098
		c0.001,0.006,0.003,0.013,0.004,0.019c0.084,0.521,0.576,0.883,1.109,0.809c0.017-0.002,0.062-0.01,0.083-0.014
		c0.002-0.001,0.005-0.001,0.006-0.002l-0.07-0.616l-0.008-0.08l0.574,0.414c0.147-0.155,0.242-0.355,0.263-0.572
		C17.464,21.573,17.463,21.498,17.452,21.421"/>
	<path clip-path="url(#SVGID_2_)" d="M20.171,18.959c-0.54,0.074-0.918,0.563-0.842,1.096c0.075,0.532,0.574,0.903,1.113,0.828
		l-0.067-0.734l0.617,0.473c0.218-0.209,0.337-0.514,0.292-0.834C21.21,19.256,20.712,18.882,20.171,18.959"/>
	<path clip-path="url(#SVGID_2_)" fill="#FFFFFF" d="M16.967,23.335c2.262,1.748,2.676,0.535,2.899-1.263
		C18.933,23.5,18.327,23.364,16.967,23.335"/>
</g>
</svg>
